<svg width="60" height="60" viewBox="0 0 60 60" fill="none" xmlns="http://www.w3.org/2000/svg">
<g clip-path="url(#clip0_1_228)">
<path d="M30 59.5082C46.5685 59.5082 60 46.2969 60 30C60 13.7031 46.5685 0.491821 30 0.491821C13.4315 0.491821 0 13.7031 0 30C0 46.2969 13.4315 59.5082 30 59.5082Z" fill="#383E47"/>
<g clip-path="url(#clip1_1_228)">
<path d="M26 39.6721V31.8033C26 31.4555 25.8595 31.1219 25.6095 30.8759C25.3594 30.63 25.0203 30.4918 24.6667 30.4918H19.3333C18.9797 30.4918 18.6406 30.63 18.3905 30.8759C18.1405 31.1219 18 31.4555 18 31.8033V39.6721C18 40.02 18.1405 40.3535 18.3905 40.5995C18.6406 40.8454 18.9797 40.9836 19.3333 40.9836M26 39.6721C26 40.02 25.8595 40.3535 25.6095 40.5995C25.3594 40.8454 25.0203 40.9836 24.6667 40.9836H19.3333M26 39.6721C26 40.02 26.1405 40.3535 26.3905 40.5995C26.6406 40.8454 26.9797 40.9836 27.3333 40.9836H32.6667C33.0203 40.9836 33.3594 40.8454 33.6095 40.5995C33.8595 40.3535 34 40.02 34 39.6721M26 39.6721V21.3115C26 20.9637 26.1405 20.6301 26.3905 20.3841C26.6406 20.1382 26.9797 20 27.3333 20H32.6667C33.0203 20 33.3594 20.1382 33.6095 20.3841C33.8595 20.6301 34 20.9637 34 21.3115V39.6721M19.3333 40.9836L38 40.9836M34 39.6721C34 40.02 34.1405 40.3535 34.3905 40.5995C34.6406 40.8454 34.9797 40.9836 35.3333 40.9836H40.6667C41.0203 40.9836 41.3594 40.8454 41.6095 40.5995C41.8595 40.3535 42 40.02 42 39.6721V26.5574C42 26.2096 41.8595 25.876 41.6095 25.63C41.3594 25.3841 41.0203 25.2459 40.6667 25.2459H35.3333C34.9797 25.2459 34.6406 25.3841 34.3905 25.63C34.1405 25.876 34 26.2096 34 26.5574V39.6721Z" stroke="#E5D3BE" stroke-width="2" stroke-linecap="round" stroke-linejoin="round"/>
</g>
</g>
<defs>
<clipPath id="clip0_1_228">
<rect width="60" height="60" rx="30" fill="white"/>
</clipPath>
<clipPath id="clip1_1_228">
<rect width="32" height="31.4754" fill="white" transform="translate(14 14.7542)"/>
</clipPath>
</defs>
</svg>
