<svg width="60" height="60" viewBox="0 0 60 60" fill="none" xmlns="http://www.w3.org/2000/svg">
<g clip-path="url(#clip0_1_233)">
<path d="M30 59.5082C46.5685 59.5082 60 46.2969 60 30C60 13.7031 46.5685 0.491821 30 0.491821C13.4315 0.491821 0 13.7031 0 30C0 46.2969 13.4315 59.5082 30 59.5082Z" fill="#EFEDE6"/>
<path d="M23.3734 30L30.0401 36.5574L28.0401 38.5246C27.605 38.9667 27.0848 39.3192 26.5098 39.5616C25.9348 39.804 25.3165 39.9314 24.6909 39.9364C24.0654 39.9414 23.4451 39.8239 22.8661 39.5907C22.2872 39.3575 21.7612 39.0134 21.3189 38.5782C20.8765 38.1432 20.5266 37.6258 20.2896 37.0564C20.0525 36.487 19.9331 35.8768 19.9381 35.2615C19.9432 34.6462 20.0727 34.038 20.3192 33.4724C20.5656 32.9069 20.924 32.3952 21.3734 31.9672L23.3734 30Z" stroke="#2D3748" stroke-width="2" stroke-linecap="round" stroke-linejoin="round"/>
<path d="M36.7067 30.0001L30.04 23.4427L32.04 21.4755C32.4752 21.0334 32.9954 20.6809 33.5704 20.4385C34.1454 20.1961 34.7637 20.0688 35.3892 20.0638C36.0148 20.0587 36.6351 20.1763 37.214 20.4094C37.793 20.6426 38.3189 20.9868 38.7613 21.4218C39.2036 21.857 39.5535 22.3743 39.7906 22.9438C40.0276 23.5132 40.1471 24.1233 40.142 24.7386C40.1369 25.354 40.0074 25.962 39.761 26.5276C39.5146 27.0933 39.1562 27.605 38.7067 28.0329L36.7067 30.0001Z" stroke="#2D3748" stroke-width="2" stroke-linecap="round" stroke-linejoin="round"/>
<path d="M18.04 41.8034L21.3734 38.5247" stroke="#2D3748" stroke-width="2" stroke-linecap="round" stroke-linejoin="round"/>
<path d="M38.7065 21.4754L42.0399 18.1968" stroke="#2D3748" stroke-width="2" stroke-linecap="round" stroke-linejoin="round"/>
<path d="M27.3732 28.6886L24.7065 31.3116" stroke="#2D3748" stroke-width="2" stroke-linecap="round" stroke-linejoin="round"/>
<path d="M31.3732 32.623L28.7065 35.246" stroke="#2D3748" stroke-width="2" stroke-linecap="round" stroke-linejoin="round"/>
</g>
<defs>
<clipPath id="clip0_1_233">
<rect width="60" height="60" rx="30" fill="white"/>
</clipPath>
</defs>
</svg>
