<svg width="159" height="19" viewBox="0 0 159 19" fill="none" xmlns="http://www.w3.org/2000/svg">
<path d="M16.6696 11.4953C20.0689 12.1226 22.381 13.3574 22.381 14.7785C22.381 16.835 17.5453 18.5 11.581 18.5C5.61671 18.5 0.781006 16.8341 0.781006 14.7785C0.781006 13.3574 3.09401 12.1226 6.49241 11.4953C7.96931 11.8787 9.71351 12.0992 11.581 12.0992C13.4485 12.0992 15.1927 11.8787 16.6696 11.4962V11.4953ZM15.3682 5.468C18.2554 5.9486 20.2444 6.9593 20.2444 8.1302C20.2444 9.7637 16.3654 11.0885 11.581 11.0885C6.79661 11.0885 2.91761 9.7637 2.91761 8.1302C2.91761 6.9602 4.90661 5.9486 7.79381 5.468C8.90351 5.7497 10.1977 5.9108 11.581 5.9108C12.9643 5.9108 14.2585 5.7488 15.3682 5.468ZM11.6206 0.5C15.2035 0.5 18.1087 1.5026 18.1087 2.7401C18.1087 3.9767 15.2035 4.9793 11.6206 4.9793C8.03771 4.9793 5.13251 3.9767 5.13251 2.7401C5.13251 1.5026 8.03771 0.5 11.6206 0.5ZM36.1501 15.341C37.051 15.341 37.7989 15.2015 38.3938 14.9216C38.9878 14.6426 39.4333 14.2592 39.7285 13.7741C40.0266 13.2787 40.18 12.7097 40.1713 12.1316C40.1713 11.5331 40.0489 11.0237 39.8032 10.6016C39.5765 10.1991 39.2506 9.86141 38.8564 9.6206C38.4925 9.39541 38.0785 9.26399 37.6513 9.2381V9.122C38.0231 9.03506 38.376 8.88104 38.6926 8.6675C39.0031 8.4569 39.2506 8.1815 39.4351 7.8422C39.6187 7.5029 39.7114 7.0934 39.7114 6.6137C39.7114 6.0305 39.5701 5.5094 39.2884 5.0495C39.0067 4.5887 38.5828 4.2251 38.0167 3.9587C37.4515 3.6923 36.7423 3.5591 35.8909 3.5591H31.381V15.3401L36.1501 15.341ZM35.6263 8.5703H33.5149V5.3204H35.6722C36.3022 5.3204 36.7765 5.468 37.096 5.7632C37.4164 6.0584 37.5766 6.4346 37.5766 6.8909C37.5766 7.2365 37.4911 7.5344 37.321 7.7855C37.15 8.0375 36.9169 8.2301 36.6217 8.3669C36.3087 8.50647 35.969 8.5759 35.6263 8.5703ZM35.8108 13.5581H33.5158V10.1066H35.8684C36.3094 10.1066 36.6892 10.1876 37.0069 10.3514C37.3255 10.5134 37.5712 10.7366 37.744 11.0183C37.9159 11.3 38.0023 11.6159 38.0023 11.9651C38.0023 12.4331 37.8313 12.8156 37.4875 13.1126C37.1446 13.4096 36.5857 13.5581 35.8108 13.5581ZM44.0305 15.5201C44.4904 15.5201 44.8918 15.4562 45.2356 15.3275C45.5785 15.1988 45.8647 15.0287 46.0924 14.8154C46.321 14.603 46.4974 14.3735 46.6252 14.1278H46.6936V15.3419H48.6961V9.428C48.6961 8.8412 48.589 8.3525 48.3766 7.961C48.1779 7.58555 47.8879 7.26615 47.5333 7.0322C47.1798 6.80189 46.7887 6.63528 46.3777 6.5399C45.9611 6.44085 45.5343 6.39071 45.106 6.3905C44.4886 6.3905 43.9243 6.4814 43.414 6.6641C42.9257 6.83277 42.4831 7.11216 42.1207 7.4804C41.7583 7.85956 41.4971 8.32381 41.3611 8.8304L43.3051 9.1058C43.4086 8.8025 43.6093 8.5397 43.9063 8.3174C44.2033 8.0951 44.6074 7.9844 45.1177 7.9844C45.601 7.9844 45.9709 8.1032 46.2274 8.3408C46.4848 8.5784 46.6135 8.9141 46.6135 9.347V9.3821C46.6135 9.581 46.5397 9.7277 46.3921 9.8222C46.2445 9.9158 46.0096 9.9842 45.6874 10.0292C45.3652 10.0733 44.9449 10.1219 44.4274 10.1759C44.0075 10.2202 43.5913 10.2942 43.1818 10.3973C42.8016 10.4902 42.4377 10.6404 42.1027 10.8428C41.7883 11.0345 41.5288 11.3042 41.3494 11.6258C41.1649 11.9516 41.0731 12.3638 41.0731 12.8624C41.0731 13.4411 41.2027 13.9289 41.4619 14.324C41.7202 14.7182 42.0739 15.017 42.5203 15.2177C42.9667 15.4193 43.4707 15.5201 44.0305 15.5201ZM44.5705 13.9901C44.1376 13.9901 43.7812 13.892 43.5013 13.6967C43.2214 13.5005 43.081 13.2107 43.081 12.8282C43.081 12.5591 43.1521 12.3395 43.2943 12.1694C43.4356 11.9984 43.6291 11.8652 43.8748 11.7689C44.1437 11.6672 44.4238 11.5977 44.7091 11.5619L45.1978 11.4935C45.3868 11.4665 45.5758 11.4359 45.7675 11.4008C45.9592 11.3666 46.1329 11.3261 46.2886 11.2802C46.4434 11.2343 46.5541 11.1848 46.6189 11.1308V12.1721C46.6189 12.4979 46.5352 12.7994 46.3687 13.0748C46.1961 13.3566 45.9504 13.5865 45.6577 13.7399C45.3517 13.9064 44.9881 13.9901 44.5705 13.9901ZM52.4275 15.3419V3.56H50.3458V15.341H52.4284L52.4275 15.3419ZM56.6611 15.5201C57.121 15.5201 57.5233 15.4562 57.8662 15.3275C58.2091 15.1988 58.4953 15.0287 58.723 14.8154C58.9516 14.603 59.1289 14.3735 59.2558 14.1278H59.3242V15.3419H61.3267V9.428C61.3267 8.8412 61.2196 8.3525 61.0072 7.961C60.8087 7.58566 60.5191 7.26626 60.1648 7.0322C59.811 6.8018 59.4196 6.63518 59.0083 6.5399C58.5917 6.44085 58.1649 6.39071 57.7366 6.3905C57.1192 6.3905 56.5558 6.4814 56.0446 6.6641C55.5563 6.83277 55.1137 7.11216 54.7513 7.4804C54.3889 7.85956 54.1277 8.32381 53.9917 8.8304L55.9357 9.1058C56.0392 8.8025 56.2399 8.5397 56.5369 8.3174C56.8339 8.0951 57.2389 7.9844 57.7483 7.9844C58.2316 7.9844 58.6015 8.1032 58.8589 8.3408C59.1154 8.5784 59.2441 8.9141 59.2441 9.347V9.3821C59.2441 9.581 59.1703 9.7277 59.0227 9.8222C58.8751 9.9158 58.6402 9.9842 58.318 10.0292C57.9958 10.0733 57.5755 10.1219 57.058 10.1759C56.6381 10.2202 56.2219 10.2942 55.8124 10.3973C55.4322 10.4902 55.0683 10.6404 54.7333 10.8428C54.4189 11.0345 54.1594 11.3042 53.98 11.6258C53.7964 11.9516 53.7037 12.3638 53.7037 12.8624C53.7037 13.4411 53.8333 13.9289 54.0925 14.324C54.3508 14.7182 54.7045 15.017 55.1509 15.2177C55.5973 15.4193 56.1013 15.5201 56.6611 15.5201ZM57.2011 13.9901C56.7691 13.9901 56.4118 13.892 56.1319 13.6967C55.852 13.5005 55.7116 13.2107 55.7116 12.8282C55.7116 12.5591 55.7827 12.3395 55.9249 12.1694C56.0662 11.9984 56.2597 11.8652 56.5054 11.7689C56.7743 11.6672 57.0544 11.5977 57.3397 11.5619L57.8284 11.4935C58.0174 11.4665 58.2064 11.4359 58.3981 11.4008C58.5898 11.3666 58.7635 11.3261 58.9192 11.2802C59.074 11.2343 59.1847 11.1848 59.2495 11.1308V12.1721C59.2495 12.4979 59.1667 12.7994 58.9993 13.0748C58.8267 13.3566 58.581 13.5865 58.2883 13.7399C57.9823 13.9064 57.6187 13.9901 57.2011 13.9901ZM65.0581 15.3419V10.1642C65.0581 9.7385 65.1391 9.3758 65.2975 9.077C65.4568 8.7782 65.6773 8.5487 65.959 8.3894C66.2557 8.22657 66.5899 8.14434 66.9283 8.1509C67.4656 8.1509 67.8859 8.3174 68.191 8.6513C68.4961 8.9843 68.6482 9.4469 68.6482 10.0373V15.3419H70.7308V9.7151C70.7353 9.0095 70.6111 8.4101 70.36 7.9151C70.108 7.4201 69.7561 7.0421 69.3016 6.7811C68.8471 6.5201 68.3152 6.3905 67.705 6.3905C67.0453 6.3905 66.4918 6.5363 66.0454 6.8279C65.6062 7.11041 65.2656 7.5224 65.0707 8.0069H64.9663V6.5057H62.9764V15.3419H65.0581ZM76.2586 15.5147C76.9984 15.5147 77.6428 15.3797 78.1909 15.1088C78.7182 14.857 79.1675 14.4674 79.4914 13.9811C79.81 13.4996 79.9936 12.9461 80.044 12.3215H78.0532C78.0027 12.6139 77.8867 12.8912 77.7139 13.1324C77.5492 13.3556 77.3449 13.5248 77.1019 13.6418C76.8571 13.7588 76.5826 13.8173 76.2757 13.8173C75.8419 13.8173 75.4657 13.7012 75.1453 13.469C74.8249 13.2368 74.5765 12.9056 74.4001 12.4736C74.2237 12.0425 74.1355 11.5259 74.1355 10.9238C74.1355 10.3298 74.2246 9.8195 74.4028 9.3938C74.581 8.9681 74.8312 8.6405 75.1534 8.4128C75.4756 8.1842 75.85 8.0708 76.2757 8.0708C76.7779 8.0708 77.1793 8.213 77.4808 8.4992C77.7814 8.7845 77.9722 9.14 78.0532 9.5657H80.044C79.9972 8.9294 79.81 8.3723 79.4797 7.8944C79.1448 7.41283 78.687 7.02967 78.154 6.7847C77.5996 6.5219 76.9642 6.3905 76.246 6.3905C75.3838 6.3905 74.6368 6.5831 74.0059 6.9683C73.3741 7.35459 72.866 7.91359 72.5416 8.5793C72.1969 9.2678 72.0241 10.0607 72.0241 10.958C72.0241 11.8517 72.1942 12.641 72.5335 13.325C72.8728 14.0099 73.3579 14.5463 73.9888 14.9333C74.6197 15.3203 75.3766 15.5147 76.2586 15.5147ZM85.2199 15.5147C85.9066 15.5147 86.5159 15.4103 87.0496 15.2006C87.5824 14.9918 88.0207 14.6966 88.3636 14.315C88.7074 13.9334 88.9396 13.4852 89.0629 12.9713L87.1189 12.7526C87.0262 13.0019 86.8903 13.2116 86.7103 13.3799C86.5303 13.5491 86.317 13.6769 86.0713 13.7624C85.8064 13.8519 85.5283 13.8957 85.2487 13.892C84.796 13.892 84.4009 13.7957 84.0634 13.6013C83.7239 13.4051 83.4499 13.113 83.2759 12.7616C83.0869 12.3953 82.9933 11.9552 82.9933 11.4413L82.9942 11.4935H89.1493V10.8545C89.1493 10.0805 89.0413 9.4118 88.8271 8.8493C88.612 8.2877 88.3177 7.8251 87.9442 7.4606C87.5781 7.1012 87.1384 6.82547 86.6554 6.6524C86.1597 6.47606 85.6371 6.38743 85.111 6.3905C84.2668 6.3905 83.5324 6.5831 82.9069 6.9683C82.2788 7.35717 81.7734 7.91563 81.4489 8.5793C81.1015 9.2678 80.9287 10.0661 80.9287 10.9751C80.9287 11.8994 81.1006 12.7022 81.4462 13.3826C81.7909 14.0639 82.285 14.5886 82.9276 14.9594C83.5702 15.3293 84.3343 15.5147 85.2199 15.5147ZM83.0032 10.0211C83.0302 9.7007 83.1184 9.4019 83.2669 9.1256C83.4451 8.7944 83.6953 8.5253 84.0175 8.3201C84.3539 8.11087 84.7438 8.00393 85.1398 8.0123C85.5385 8.0123 85.8886 8.1023 86.1892 8.2823C86.4907 8.4632 86.7256 8.7098 86.8939 9.0221C87.0631 9.3353 87.1486 9.6908 87.1531 10.0895H82.9987L83.0032 10.0211ZM92.5423 15.3419V10.1471C92.5423 9.7709 92.6287 9.4397 92.8006 9.1517C92.9734 8.8637 93.2101 8.6387 93.5116 8.4758C93.8258 8.30953 94.1768 8.22532 94.5322 8.231C94.7086 8.231 94.8922 8.2436 95.0812 8.2688C95.272 8.294 95.4106 8.321 95.4988 8.3525V6.4364C95.3798 6.41436 95.2596 6.39994 95.1388 6.3932C95.01 6.38416 94.8809 6.37936 94.7518 6.3788C94.2451 6.3788 93.7951 6.5183 93.4018 6.7964C93.0085 7.0736 92.7322 7.4678 92.5711 7.9781H92.4784V6.5057H90.4597V15.3419H92.5423Z" fill="black"/>
<path d="M158.65 8.89629L156.751 9.10339C156.698 8.91163 156.604 8.73138 156.469 8.56263C156.339 8.39388 156.163 8.25773 155.94 8.15417C155.718 8.05062 155.445 7.99885 155.123 7.99885C154.69 7.99885 154.326 8.09281 154.03 8.28074C153.739 8.46866 153.595 8.7122 153.599 9.01135C153.595 9.26831 153.689 9.47733 153.881 9.63841C154.076 9.79949 154.398 9.9318 154.847 10.0354L156.354 10.3575C157.19 10.5378 157.812 10.8235 158.218 11.2147C158.629 11.6059 158.836 12.1179 158.84 12.7507C158.836 13.3068 158.673 13.7977 158.351 14.2234C158.032 14.6453 157.589 14.9751 157.022 15.2129C156.454 15.4507 155.802 15.5696 155.066 15.5696C153.984 15.5696 153.114 15.3433 152.454 14.8908C151.794 14.4344 151.401 13.7996 151.275 12.9866L153.305 12.791C153.397 13.1898 153.593 13.4909 153.892 13.6942C154.191 13.8974 154.581 13.9991 155.06 13.9991C155.555 13.9991 155.952 13.8974 156.251 13.6942C156.554 13.4909 156.705 13.2397 156.705 12.9405C156.705 12.6874 156.607 12.4784 156.412 12.3135C156.22 12.1486 155.921 12.022 155.514 11.9338L154.007 11.6174C153.16 11.441 152.533 11.1437 152.126 10.7257C151.719 10.3038 151.518 9.77072 151.522 9.1264C151.518 8.5818 151.666 8.11007 151.965 7.71121C152.268 7.30851 152.688 6.99785 153.225 6.77925C153.766 6.5568 154.389 6.44558 155.094 6.44558C156.13 6.44558 156.945 6.66611 157.539 7.10716C158.138 7.54821 158.508 8.14459 158.65 8.89629Z" fill="black"/>
<path d="M146.656 15.5696C145.774 15.5696 145.017 15.3759 144.384 14.9885C143.755 14.6012 143.27 14.0662 142.928 13.3835C142.591 12.697 142.422 11.9069 142.422 11.0133C142.422 10.1159 142.595 9.32392 142.94 8.63741C143.285 7.94707 143.772 7.41014 144.401 7.02662C145.034 6.63926 145.782 6.44558 146.645 6.44558C147.362 6.44558 147.997 6.5779 148.549 6.84253C149.105 7.10332 149.548 7.47342 149.878 7.95283C150.208 8.42839 150.396 8.9845 150.442 9.62115H148.451C148.371 9.19544 148.179 8.84068 147.876 8.55687C147.577 8.26923 147.176 8.12541 146.674 8.12541C146.248 8.12541 145.874 8.24047 145.552 8.47058C145.23 8.69686 144.978 9.02285 144.798 9.44856C144.622 9.87427 144.534 10.3844 144.534 10.9788C144.534 11.581 144.622 12.0987 144.798 12.5321C144.975 12.9616 145.222 13.2934 145.54 13.5273C145.862 13.7574 146.24 13.8725 146.674 13.8725C146.98 13.8725 147.255 13.815 147.496 13.6999C147.742 13.581 147.947 13.4104 148.112 13.1879C148.277 12.9655 148.39 12.6951 148.451 12.3768H150.442C150.392 13.0019 150.208 13.5561 149.889 14.0393C149.571 14.5187 149.138 14.8946 148.589 15.1669C148.041 15.4354 147.397 15.5696 146.656 15.5696Z" fill="black"/>
<path d="M137.286 15.5696C136.423 15.5696 135.676 15.3797 135.043 15.0001C134.41 14.6204 133.919 14.0892 133.57 13.4065C133.225 12.7238 133.052 11.9261 133.052 11.0133C133.052 10.1006 133.225 9.30091 133.57 8.6144C133.919 7.9279 134.41 7.3948 135.043 7.01511C135.676 6.63542 136.423 6.44558 137.286 6.44558C138.149 6.44558 138.897 6.63542 139.53 7.01511C140.163 7.3948 140.652 7.9279 140.997 8.6144C141.346 9.30091 141.52 10.1006 141.52 11.0133C141.52 11.9261 141.346 12.7238 140.997 13.4065C140.652 14.0892 140.163 14.6204 139.53 15.0001C138.897 15.3797 138.149 15.5696 137.286 15.5696ZM137.298 13.9013C137.766 13.9013 138.157 13.7728 138.471 13.5158C138.786 13.255 139.02 12.906 139.173 12.4688C139.331 12.0316 139.409 11.5445 139.409 11.0076C139.409 10.4668 139.331 9.97783 139.173 9.54061C139.02 9.09956 138.786 8.74863 138.471 8.48784C138.157 8.22704 137.766 8.09665 137.298 8.09665C136.818 8.09665 136.42 8.22704 136.101 8.48784C135.787 8.74863 135.551 9.09956 135.394 9.54061C135.24 9.97783 135.164 10.4668 135.164 11.0076C135.164 11.5445 135.24 12.0316 135.394 12.4688C135.551 12.906 135.787 13.255 136.101 13.5158C136.42 13.7728 136.818 13.9013 137.298 13.9013Z" fill="black"/>
<path d="M126.264 15.397H122.271V3.61523H126.344C127.514 3.61523 128.519 3.85109 129.359 4.32283C130.203 4.79073 130.851 5.46381 131.303 6.34207C131.756 7.22034 131.982 8.27119 131.982 9.49463C131.982 10.7219 131.754 11.7766 131.298 12.6587C130.845 13.5408 130.191 14.2177 129.336 14.6894C128.484 15.1612 127.46 15.397 126.264 15.397ZM124.406 13.5504H126.16C126.981 13.5504 127.666 13.4008 128.214 13.1017C128.762 12.7987 129.175 12.348 129.451 11.7497C129.727 11.1476 129.865 10.3959 129.865 9.49463C129.865 8.59335 129.727 7.84548 129.451 7.25102C129.175 6.65273 128.766 6.20592 128.226 5.91061C127.689 5.61146 127.021 5.46189 126.224 5.46189H124.406V13.5504Z" fill="black"/>
<path d="M112.786 15.5581C111.958 15.5581 111.221 15.4162 110.577 15.1324C109.937 14.8486 109.43 14.4535 109.058 13.9473C108.686 13.441 108.489 12.8562 108.466 12.1927H110.629C110.648 12.511 110.753 12.7891 110.945 13.0268C111.137 13.2608 111.392 13.443 111.71 13.5734C112.029 13.7038 112.385 13.769 112.78 13.769C113.202 13.769 113.576 13.6961 113.902 13.5503C114.228 13.4008 114.483 13.1937 114.667 12.929C114.851 12.6644 114.941 12.3595 114.938 12.0143C114.941 11.6577 114.849 11.3432 114.662 11.0709C114.474 10.7986 114.201 10.5857 113.845 10.4323C113.492 10.2789 113.066 10.2022 112.567 10.2022H111.526V8.55688H112.567C112.978 8.55688 113.336 8.48593 113.643 8.34403C113.954 8.20213 114.197 8.00269 114.374 7.74573C114.55 7.48494 114.637 7.18387 114.633 6.84254C114.637 6.50887 114.562 6.21931 114.408 5.97386C114.259 5.72457 114.046 5.53089 113.77 5.39282C113.498 5.25475 113.177 5.18572 112.809 5.18572C112.449 5.18572 112.115 5.25092 111.808 5.38132C111.501 5.51171 111.254 5.69772 111.066 5.93934C110.878 6.17713 110.778 6.46093 110.767 6.79076H108.713C108.728 6.1311 108.918 5.55198 109.283 5.0534C109.651 4.55099 110.142 4.1598 110.755 3.87982C111.369 3.59602 112.057 3.45411 112.821 3.45411C113.607 3.45411 114.289 3.60177 114.869 3.89708C115.452 4.18856 115.902 4.58167 116.221 5.07641C116.539 5.57116 116.698 6.11768 116.698 6.71597C116.702 7.37947 116.506 7.93558 116.111 8.3843C115.72 8.83302 115.206 9.12641 114.569 9.26448V9.35653C115.398 9.47159 116.033 9.7784 116.474 10.277C116.919 10.7717 117.139 11.3873 117.135 12.1236C117.135 12.7833 116.947 13.3739 116.571 13.8955C116.199 14.4133 115.686 14.8198 115.03 15.1151C114.378 15.4104 113.63 15.5581 112.786 15.5581Z" fill="black"/>
<path d="M107.626 6.56066L104.479 15.397H102.178L99.0309 6.56066H101.251L103.282 13.1247H103.374L105.411 6.56066H107.626Z" fill="black"/>
</svg>
