<svg width="60" height="60" viewBox="0 0 60 60" fill="none" xmlns="http://www.w3.org/2000/svg">
<g clip-path="url(#clip0_1_256)">
<path d="M30 59.5082C46.5685 59.5082 60 46.2969 60 30C60 13.7031 46.5685 0.491821 30 0.491821C13.4315 0.491821 0 13.7031 0 30C0 46.2969 13.4315 59.5082 30 59.5082Z" fill="#EFEDE6"/>
<g clip-path="url(#clip1_1_256)">
<path d="M41.25 30.8439L30 41.8032L18.75 30.8439C18.008 30.1336 17.4235 29.2799 17.0333 28.3366C16.6432 27.3932 16.4559 26.3807 16.4831 25.3626C16.5104 24.3445 16.7517 23.3431 17.1918 22.4212C17.6319 21.4994 18.2612 20.6772 19.0403 20.0063C19.8193 19.3355 20.7311 18.8306 21.7182 18.5234C22.7054 18.2162 23.7465 18.1134 24.7761 18.2214C25.8056 18.3295 26.8013 18.646 27.7003 19.1511C28.5994 19.6562 29.3824 20.3389 30 21.1563C30.6203 20.3449 31.4042 19.6681 32.3027 19.1684C33.2011 18.6686 34.1948 18.3566 35.2214 18.252C36.2481 18.1473 37.2856 18.2523 38.2692 18.5602C39.2527 18.8681 40.1611 19.3724 40.9374 20.0414C41.7136 20.7105 42.3412 21.53 42.7807 22.4486C43.2201 23.3672 43.4621 24.3652 43.4915 25.38C43.5208 26.3948 43.3369 27.4047 42.9512 28.3464C42.5655 29.288 41.9864 30.1413 41.25 30.8527M30 21.1475L25.0605 26.006C24.7793 26.2827 24.6213 26.6579 24.6213 27.0491C24.6213 27.4403 24.7793 27.8155 25.0605 28.0922L25.875 28.8934C26.91 29.9114 28.59 29.9114 29.625 28.8934L31.125 27.418C32.0201 26.5375 33.2342 26.0429 34.5 26.0429C35.7659 26.0429 36.9799 26.5375 37.875 27.418L41.25 30.7376M30.75 35.1639L33.75 38.1147M34.5 31.4753L37.5 34.4261" stroke="#2D3748" stroke-width="2" stroke-linecap="round" stroke-linejoin="round"/>
</g>
</g>
<defs>
<clipPath id="clip0_1_256">
<rect width="60" height="60" rx="30" fill="white"/>
</clipPath>
<clipPath id="clip1_1_256">
<rect width="36" height="35.4098" fill="white" transform="translate(12 12.295)"/>
</clipPath>
</defs>
</svg>
