<svg width="60" height="60" viewBox="0 0 60 60" fill="none" xmlns="http://www.w3.org/2000/svg">
<g clip-path="url(#clip0_1_213)">
<path d="M30 59.5082C46.5685 59.5082 60 46.2969 60 30C60 13.7031 46.5685 0.491821 30 0.491821C13.4315 0.491821 0 13.7031 0 30C0 46.2969 13.4315 59.5082 30 59.5082Z" fill="#383E47"/>
<g clip-path="url(#clip1_1_213)">
<path d="M30 21.3115C30 20.6159 29.719 19.9487 29.219 19.4568C28.7189 18.9649 28.0406 18.6886 27.3333 18.6886H19.3333C18.9797 18.6886 18.6406 18.8268 18.3905 19.0727C18.1405 19.3187 18 19.6522 18 20.0001V38.3607C18 38.7086 18.1405 39.0421 18.3905 39.2881C18.6406 39.534 18.9797 39.6722 19.3333 39.6722H27.3333C28.0406 39.6722 28.7189 39.9486 29.219 40.4405C29.719 40.9324 30 41.5995 30 42.2952M30 21.3115C30 20.6159 30.281 19.9487 30.781 19.4568C31.2811 18.9649 31.9594 18.6886 32.6667 18.6886H40.6667C41.0203 18.6886 41.3594 18.8268 41.6095 19.0727C41.8595 19.3187 42 19.6522 42 20.0001V38.3607C42 38.7086 41.8595 39.0421 41.6095 39.2881C41.3594 39.534 41.0203 39.6722 40.6667 39.6722H32.6667C31.9594 39.6722 31.2811 39.9486 30.781 40.4405C30.281 40.9324 30 41.5995 30 42.2952M30 21.3115V42.2952M23.3333 23.9345H24.6667M23.3333 29.1804H24.6667M35.3333 23.9345H36.6667M35.3333 29.1804H36.6667M35.3333 34.4263H36.6667" stroke="#E5D3BE" stroke-width="2" stroke-linecap="round" stroke-linejoin="round"/>
</g>
</g>
<defs>
<clipPath id="clip0_1_213">
<rect width="60" height="60" rx="30" fill="white"/>
</clipPath>
<clipPath id="clip1_1_213">
<rect width="32" height="31.4754" fill="white" transform="translate(14 14.7542)"/>
</clipPath>
</defs>
</svg>
