<svg width="2012" height="2012" viewBox="0 0 2012 2012" fill="none" xmlns="http://www.w3.org/2000/svg">
<path opacity="0.28" fill-rule="evenodd" clip-rule="evenodd" d="M2010.5 1005.91C2010.5 1560.75 1560.71 2010.53 1005.88 2010.53C451.036 2010.53 1.25 1560.75 1.25 1005.91C1.25 451.07 451.036 1.28442 1005.88 1.28442C1560.71 1.28442 2010.5 451.07 2010.5 1005.91ZM2011.5 1005.91C2011.5 1561.3 1561.27 2011.53 1005.88 2011.53C450.484 2011.53 0.25 1561.3 0.25 1005.91C0.25 450.518 450.484 0.284424 1005.88 0.284424C1561.27 0.284424 2011.5 450.518 2011.5 1005.91ZM1005.87 1960.25C1532.94 1960.25 1960.22 1532.98 1960.22 1005.91C1960.22 478.84 1532.94 51.5657 1005.87 51.5657C478.805 51.5657 51.5312 478.84 51.5312 1005.91C51.5312 1532.98 478.805 1960.25 1005.87 1960.25ZM1005.87 1961.25C1533.5 1961.25 1961.22 1533.53 1961.22 1005.91C1961.22 478.288 1533.5 50.5657 1005.87 50.5657C478.253 50.5657 50.5312 478.288 50.5312 1005.91C50.5312 1533.53 478.253 1961.25 1005.87 1961.25ZM1909.94 1005.91C1909.94 1505.21 1505.17 1909.97 1005.88 1909.97C506.575 1909.97 101.813 1505.21 101.813 1005.91C101.813 506.609 506.575 101.847 1005.88 101.847C1505.17 101.847 1909.94 506.609 1909.94 1005.91ZM1910.94 1005.91C1910.94 1505.76 1505.73 1910.97 1005.88 1910.97C506.023 1910.97 100.813 1505.76 100.813 1005.91C100.813 506.057 506.023 100.847 1005.88 100.847C1505.73 100.847 1910.94 506.057 1910.94 1005.91ZM1859.66 1005.91C1859.66 1477.44 1477.41 1859.69 1005.88 1859.69C534.345 1859.69 152.094 1477.44 152.094 1005.91C152.094 534.379 534.345 152.128 1005.88 152.128C1477.41 152.128 1859.66 534.379 1859.66 1005.91ZM1860.66 1005.91C1860.66 1477.99 1477.96 1860.69 1005.88 1860.69C533.792 1860.69 151.094 1477.99 151.094 1005.91C151.094 533.827 533.792 151.128 1005.88 151.128C1477.96 151.128 1860.66 533.827 1860.66 1005.91ZM1005.88 1809.41C1449.64 1809.41 1809.38 1449.67 1809.38 1005.91C1809.38 562.149 1449.64 202.409 1005.88 202.409C562.114 202.409 202.375 562.149 202.375 1005.91C202.375 1449.67 562.114 1809.41 1005.88 1809.41ZM1005.88 1810.41C1450.19 1810.41 1810.38 1450.22 1810.38 1005.91C1810.38 561.596 1450.19 201.409 1005.88 201.409C561.562 201.409 201.375 561.596 201.375 1005.91C201.375 1450.22 561.562 1810.41 1005.88 1810.41ZM1759.09 1005.91C1759.09 1421.9 1421.87 1759.13 1005.88 1759.13C589.884 1759.13 252.656 1421.9 252.656 1005.91C252.656 589.918 589.884 252.691 1005.88 252.691C1421.87 252.691 1759.09 589.918 1759.09 1005.91ZM1760.09 1005.91C1760.09 1422.45 1422.42 1760.13 1005.88 1760.13C589.331 1760.13 251.656 1422.45 251.656 1005.91C251.656 589.366 589.331 251.691 1005.88 251.691C1422.42 251.691 1760.09 589.366 1760.09 1005.91ZM1005.87 1708.85C1394.1 1708.85 1708.81 1394.13 1708.81 1005.91C1708.81 617.688 1394.1 302.972 1005.87 302.972C617.653 302.972 302.937 617.688 302.937 1005.91C302.937 1394.13 617.653 1708.85 1005.87 1708.85ZM1005.87 1709.85C1394.65 1709.85 1709.81 1394.68 1709.81 1005.91C1709.81 617.135 1394.65 301.972 1005.87 301.972C617.101 301.972 301.937 617.135 301.937 1005.91C301.937 1394.68 617.101 1709.85 1005.87 1709.85ZM1658.53 1005.91C1658.53 1366.36 1366.33 1658.57 1005.88 1658.57C645.423 1658.57 353.219 1366.36 353.219 1005.91C353.219 645.457 645.423 353.253 1005.88 353.253C1366.33 353.253 1658.53 645.457 1658.53 1005.91ZM1659.53 1005.91C1659.53 1366.91 1366.88 1659.57 1005.88 1659.57C644.871 1659.57 352.219 1366.91 352.219 1005.91C352.219 644.905 644.871 352.253 1005.88 352.253C1366.88 352.253 1659.53 644.905 1659.53 1005.91ZM1005.88 1608.28C1338.56 1608.28 1608.25 1338.59 1608.25 1005.91C1608.25 673.227 1338.56 403.534 1005.88 403.534C673.192 403.534 403.5 673.227 403.5 1005.91C403.5 1338.59 673.192 1608.28 1005.88 1608.28ZM1005.88 1609.28C1339.11 1609.28 1609.25 1339.14 1609.25 1005.91C1609.25 672.675 1339.11 402.534 1005.88 402.534C672.64 402.534 402.5 672.675 402.5 1005.91C402.5 1339.14 672.64 1609.28 1005.88 1609.28ZM1557.97 1005.91C1557.97 1310.82 1310.79 1558 1005.88 1558C700.962 1558 453.781 1310.82 453.781 1005.91C453.781 700.996 700.962 453.816 1005.88 453.816C1310.79 453.816 1557.97 700.996 1557.97 1005.91ZM1558.97 1005.91C1558.97 1311.37 1311.34 1559 1005.88 1559C700.41 1559 452.781 1311.37 452.781 1005.91C452.781 700.444 700.41 452.816 1005.88 452.816C1311.34 452.816 1558.97 700.444 1558.97 1005.91ZM1005.88 1507.72C1283.02 1507.72 1507.69 1283.05 1507.69 1005.91C1507.69 728.766 1283.02 504.097 1005.88 504.097C728.732 504.097 504.062 728.766 504.062 1005.91C504.062 1283.05 728.732 1507.72 1005.88 1507.72ZM1005.88 1508.72C1283.57 1508.72 1508.69 1283.61 1508.69 1005.91C1508.69 728.214 1283.57 503.097 1005.88 503.097C728.179 503.097 503.062 728.214 503.062 1005.91C503.062 1283.61 728.179 1508.72 1005.88 1508.72ZM1457.41 1005.91C1457.41 1255.28 1255.25 1457.44 1005.88 1457.44C756.501 1457.44 554.344 1255.28 554.344 1005.91C554.344 756.536 756.501 554.378 1005.88 554.378C1255.25 554.378 1457.41 756.536 1457.41 1005.91ZM1458.41 1005.91C1458.41 1255.84 1255.8 1458.44 1005.88 1458.44C755.949 1458.44 553.344 1255.84 553.344 1005.91C553.344 755.983 755.949 553.378 1005.88 553.378C1255.8 553.378 1458.41 755.983 1458.41 1005.91ZM1407.12 1005.91C1407.12 1227.51 1227.48 1407.16 1005.88 1407.16C784.271 1407.16 604.625 1227.51 604.625 1005.91C604.625 784.305 784.271 604.659 1005.88 604.659C1227.48 604.659 1407.12 784.305 1407.12 1005.91ZM1408.12 1005.91C1408.12 1228.07 1228.03 1408.16 1005.88 1408.16C783.719 1408.16 603.625 1228.07 603.625 1005.91C603.625 783.753 783.719 603.659 1005.88 603.659C1228.03 603.659 1408.12 783.753 1408.12 1005.91Z" fill="url(#paint0_linear_11_25)"/>
<defs>
<linearGradient id="paint0_linear_11_25" x1="1082" y1="620" x2="1104" y2="1714" gradientUnits="userSpaceOnUse">
<stop stop-color="#B98950"/>
<stop offset="1" stop-color="#B98950" stop-opacity="0"/>
</linearGradient>
</defs>
</svg>
